<?xml version="1.0" encoding="UTF-8" standalone="no"?>
<svg
   xmlns:dc="http://purl.org/dc/elements/1.1/"
   xmlns:cc="http://creativecommons.org/ns#"
   xmlns:rdf="http://www.w3.org/1999/02/22-rdf-syntax-ns#"
   xmlns:svg="http://www.w3.org/2000/svg"
   xmlns="http://www.w3.org/2000/svg"
   xmlns:sodipodi="http://sodipodi.sourceforge.net/DTD/sodipodi-0.dtd"
   xmlns:inkscape="http://www.inkscape.org/namespaces/inkscape"
   version="1.1"
   x="0px"
   y="0px"
   viewBox="0 0 100 125"
   enable-background="new 0 0 100 100"
   xml:space="preserve"
   id="svg839"
   sodipodi:docname="School_noun_750926_cc.svg"
   inkscape:version="0.92.3 (2405546, 2018-03-11)"><metadata
     id="metadata845"><rdf:RDF><cc:Work
         rdf:about=""><dc:format>image/svg+xml</dc:format><dc:type
           rdf:resource="http://purl.org/dc/dcmitype/StillImage" /></cc:Work></rdf:RDF></metadata><defs
     id="defs843" /><sodipodi:namedview
     pagecolor="#ffffff"
     bordercolor="#666666"
     borderopacity="1"
     objecttolerance="10"
     gridtolerance="10"
     guidetolerance="10"
     inkscape:pageopacity="0"
     inkscape:pageshadow="2"
     inkscape:window-width="1920"
     inkscape:window-height="1017"
     id="namedview841"
     showgrid="false"
     inkscape:zoom="3.392"
     inkscape:cx="-93.541121"
     inkscape:cy="65.676144"
     inkscape:window-x="-8"
     inkscape:window-y="-8"
     inkscape:window-maximized="1"
     inkscape:current-layer="svg839" /><g
     id="g833"
     transform="matrix(1.0868003,0,0,0.92847883,15.850172,3.9836354)"
     style="fill:#ff00ff;fill-opacity:1;stroke:#f6ffff;stroke-opacity:1;stroke-width:4.97747545;stroke-miterlimit:5;stroke-dasharray:none"><path
       d="M 73.858,31.499 28.51,5.317 C 28.483,5.301 28.452,5.296 28.425,5.282 28.297,5.215 28.164,5.16 28.024,5.116 27.977,5.101 27.932,5.084 27.884,5.072 27.704,5.029 27.519,5 27.326,5 27.133,5 26.948,5.029 26.769,5.073 26.721,5.085 26.676,5.102 26.629,5.117 26.489,5.16 26.355,5.215 26.228,5.283 26.2,5.298 26.17,5.303 26.142,5.318 26.124,5.329 26.111,5.345 26.093,5.356 25.933,5.454 25.781,5.565 25.649,5.697 25.646,5.7 25.644,5.703 25.641,5.706 25.514,5.834 25.408,5.98 25.313,6.135 25.286,6.18 25.263,6.225 25.239,6.272 25.174,6.395 25.121,6.524 25.078,6.659 25.062,6.708 25.045,6.756 25.032,6.806 24.988,6.987 24.957,7.174 24.957,7.369 v 52.363 32.9 c 0,1.308 1.06,2.368 2.368,2.368 1.308,0 2.368,-1.06 2.368,-2.368 V 61.099 L 73.857,35.601 c 0.733,-0.423 1.184,-1.205 1.184,-2.051 0,-0.846 -0.45,-1.628 -1.183,-2.051 z"
       id="path831"
       inkscape:connector-curvature="0"
       style="fill:#ff00ff;fill-opacity:1;stroke:#f6ffff;stroke-opacity:1;stroke-width:4.97747545;stroke-miterlimit:5;stroke-dasharray:none" /></g><rect
     style="fill:#ff00ff;fill-opacity:1;stroke:#ffffff;stroke-width:5;stroke-linecap:round;stroke-miterlimit:5;stroke-dasharray:none;stroke-opacity:1"
     id="rect847"
     width="54.294201"
     height="39.795265"
     x="18.155581"
     y="75.575035"
     rx="5"
     ry="5" /></svg>