<?xml version="1.0" encoding="UTF-8" standalone="no"?>
<svg
   xmlns:dc="http://purl.org/dc/elements/1.1/"
   xmlns:cc="http://creativecommons.org/ns#"
   xmlns:rdf="http://www.w3.org/1999/02/22-rdf-syntax-ns#"
   xmlns:svg="http://www.w3.org/2000/svg"
   xmlns="http://www.w3.org/2000/svg"
   xmlns:sodipodi="http://sodipodi.sourceforge.net/DTD/sodipodi-0.dtd"
   xmlns:inkscape="http://www.inkscape.org/namespaces/inkscape"
   xml:space="preserve"
   style="shape-rendering:geometricPrecision;text-rendering:geometricPrecision;image-rendering:optimizeQuality;"
   viewBox="0 0 0.333339 0.41667375"
   x="0px"
   y="0px"
   fill-rule="evenodd"
   clip-rule="evenodd"
   version="1.1"
   id="svg853"
   sodipodi:docname="Services_noun_1545109_cc.svg"
   inkscape:version="0.92.3 (2405546, 2018-03-11)"><metadata
     id="metadata857"><rdf:RDF><cc:Work
         rdf:about=""><dc:format>image/svg+xml</dc:format><dc:type
           rdf:resource="http://purl.org/dc/dcmitype/StillImage" /></cc:Work></rdf:RDF></metadata><sodipodi:namedview
     pagecolor="#ffffff"
     bordercolor="#666666"
     borderopacity="1"
     objecttolerance="10"
     gridtolerance="10"
     guidetolerance="10"
     inkscape:pageopacity="0"
     inkscape:pageshadow="2"
     inkscape:window-width="1920"
     inkscape:window-height="1017"
     id="namedview855"
     showgrid="false"
     inkscape:zoom="256"
     inkscape:cx="-0.06333547"
     inkscape:cy="0.24750671"
     inkscape:window-x="-8"
     inkscape:window-y="-8"
     inkscape:window-maximized="1"
     inkscape:current-layer="svg853" /><defs
     id="defs843"><style
       type="text/css"
       id="style841">
   
    .fil0 {fill:black}
   
  </style></defs><g
     id="g847"
     style="fill:#0033a0;fill-opacity:1"
     transform="translate(0.00390625,0.04296875)"><path
       class="fil0"
       d="m 0.149102,0 h 0.0351339 v 0.0253858 c 0.0132756,0.0016339 0.0259882,0.0050866 0.037878,0.0101181 L 0.2347911,0.0135472 0.2652163,0.0311141 0.2525194,0.0531023 C 0.26298,0.06102356 0.2723147,0.0703582 0.2802359,0.0808188 L 0.3022241,0.0681219 0.319791,0.0985471 0.2978343,0.1112243 c 0.005032,0.0118858 0.008488,0.0245984 0.0101181,0.037878 H 0.3333382 V 0.1842362 H 0.3079524 C 0.3063184,0.1975118 0.3028654,0.2102244 0.2978343,0.2221142 L 0.319791,0.2347914 0.3022241,0.2652166 0.2802359,0.2525197 C 0.27231464,0.2629803 0.26298,0.272315 0.2525194,0.2802362 L 0.2652163,0.3022244 0.2347911,0.3197913 0.2221139,0.2978307 c -0.0118858,0.005035 -0.0246024,0.008488 -0.037878,0.010122 V 0.3333385 H 0.149102 V 0.3079527 C 0.1358264,0.30631884 0.1231099,0.30286215 0.111224,0.2978307 L 0.0985468,0.3197913 0.0681216,0.3022244 0.0808185,0.2802362 C 0.0703579,0.27231494 0.0610232,0.2629803 0.053102,0.2525197 L 0.0311138,0.2652166 0.0135469,0.2347914 0.0355075,0.2221142 C 0.030476,0.2102244 0.02701931,0.1975118 0.0253855,0.1842362 H -3e-7 V 0.1491023 H 0.0253855 C 0.0270194,0.1358267 0.0304761,0.1231141 0.0355075,0.1112243 L 0.0135469,0.0985471 0.0311138,0.0681219 0.053102,0.0808188 C 0.06102326,0.0703582 0.0703579,0.0610235 0.0808185,0.0531023 L 0.0681216,0.0311141 0.0985468,0.0135472 0.111224,0.0355078 C 0.1231098,0.0304763 0.1358264,0.02701961 0.149102,0.0253858 Z m 0.0175669,0.0954173 c 0.0393504,0 0.071252,0.0319016 0.071252,0.071252 0,0.0393504 -0.0319016,0.071252 -0.071252,0.071252 -0.0393504,0 -0.071252,-0.0319016 -0.071252,-0.071252 0,-0.0393504 0.0319016,-0.071252 0.071252,-0.071252 z"
       id="path845"
       style="fill:#0033a0;fill-opacity:1"
       inkscape:connector-curvature="0" /></g></svg>